<svg xmlns="http://www.w3.org/2000/svg" width="111.58" height="121.637" viewBox="0 0 111.58 121.637">
  <g id="Icons-24" transform="translate(-44.21 -40.18)">
    <g id="Group_11552" data-name="Group 11552">
      <g id="Group_11551" data-name="Group 11551">
        <path id="Path_270" data-name="Path 270" d="M86.75,158.491a2,2,0,0,1-.634-.1,47.283,47.283,0,0,1-13.287-7.569,37.7,37.7,0,0,1-9.188-10.587A32.193,32.193,0,0,1,59.42,124.07c0-16.947-.048-22.336-.083-24.006a2,2,0,0,1-.066-.569s0-.117.009-.234c0-.084.009-.154.014-.213a2.006,2.006,0,0,1,4-.065c.008.069.013.145.019.247.008.155.015.381.022.691.016.709.029,1.866.041,3.44.03,4.137.046,11.1.046,20.709,0,9.258,3.978,17.183,11.824,23.556a44.064,44.064,0,0,0,12.143,6.968,2,2,0,0,1-.636,3.9Z" fill="#197f57"/>
        <path id="Path_271" data-name="Path 271" d="M124.89,154.09c-1.82,0-3.64-.08-5.41-.24-3.9-.35-7.64-.52-11.43-.52-2.58,0-4.78.08-6.72.14-1.5.05-2.8.1-3.98.1a16.053,16.053,0,0,1-4.56-.49c.93-5.75,4.64-16.68,19.3-19.05a53.621,53.621,0,0,1,8.45-.71c14.35,0,20.13,6.73,20.37,7.02a3.221,3.221,0,0,0,.65.68,23.549,23.549,0,0,1,5.7,9.25,70.481,70.481,0,0,1-22.37,3.81Z" fill="#bfe2d5"/>
        <path id="Path_272" data-name="Path 272" d="M54.52,91.17H68.83v6.07a1.329,1.329,0,0,1-1.33,1.33H55.86a1.329,1.329,0,0,1-1.33-1.33V91.17h0Z" fill="#41b880"/>
        <path id="Path_273" data-name="Path 273" d="M50.55,40.17H72.51v5.87a1.53,1.53,0,0,1-1.53,1.53H52.08a1.536,1.536,0,0,1-1.53-1.53V40.17h0Z" transform="translate(123.06 87.75) rotate(180)" fill="#41b880"/>
        <path id="Path_274" data-name="Path 274" d="M50.97,45.57h21.4a6.768,6.768,0,0,1,6.76,6.76V86.42a6.768,6.768,0,0,1-6.76,6.76H50.97a6.768,6.768,0,0,1-6.76-6.76V52.33A6.768,6.768,0,0,1,50.97,45.57Zm21.4,43.61a2.763,2.763,0,0,0,2.76-2.76V52.33a2.763,2.763,0,0,0-2.76-2.76H50.97a2.763,2.763,0,0,0-2.76,2.76V86.42a2.763,2.763,0,0,0,2.76,2.76Z" fill="#197f57"/>
        <path id="Line_3" data-name="Line 3" d="M0,9.3a2,2,0,0,1-2-2V0A2,2,0,0,1,0-2,2,2,0,0,1,2,0V7.3A2,2,0,0,1,0,9.3Z" transform="translate(111.52 120.84)" fill="#197f57"/>
        <path id="Line_4" data-name="Line 4" d="M0,9.3a2,2,0,0,1-2-2V0A2,2,0,0,1,0-2,2,2,0,0,1,2,0V7.3A2,2,0,0,1,0,9.3Z" transform="translate(127.76 120.84)" fill="#197f57"/>
        <path id="Path_275" data-name="Path 275" d="M124.913,161.817c-2.057,0-4.117-.093-6.124-.275-3.661-.331-7.172-.492-10.73-.492-2.44,0-4.572.074-6.454.139-1.51.052-2.936.1-4.243.1-4.2,0-7.6-.507-11.495-3.007A2,2,0,0,1,84.75,156.5a34.456,34.456,0,0,1,3.18-13.427,28.563,28.563,0,0,1,7.791-10.185,31.363,31.363,0,0,1,15.14-6.5,61.11,61.11,0,0,1,9.692-.813,45.3,45.3,0,0,1,11.869,1.5,34.8,34.8,0,0,1,8.174,3.342,23.8,23.8,0,0,1,6.239,4.936,29.461,29.461,0,0,1,4.1,4.938,30.8,30.8,0,0,1,3.049,5.778,26.573,26.573,0,0,1,1.8,7.63,2,2,0,0,1-1.133,1.967,60.72,60.72,0,0,1-8.594,3.09,79.859,79.859,0,0,1-9.393,2.1,74.456,74.456,0,0,1-11.748.955Zm-16.854-4.767c3.68,0,7.308.166,11.091.508,1.888.172,3.826.259,5.763.259h0a73.844,73.844,0,0,0,19.942-2.869,66.023,66.023,0,0,0,6.778-2.325,26.434,26.434,0,0,0-7.586-14.391,1.785,1.785,0,0,1-.244-.26,19.823,19.823,0,0,0-5.4-4.19c-3.41-1.916-9.276-4.2-17.854-4.2a57.106,57.106,0,0,0-9.055.761c-9.448,1.525-16.137,6.332-19.88,14.285A31.655,31.655,0,0,0,88.8,155.388c2.775,1.583,5.224,1.9,8.56,1.9,1.238,0,2.566-.046,4.1-.1C103.38,157.125,105.549,157.05,108.059,157.05Z" fill="#197f57"/>
        <path id="Path_276" data-name="Path 276" d="M120.23,65.7c9.476,0,15.121,3.936,18.188,7.238A22.176,22.176,0,0,1,144.26,87.88c0,.474,0,1,.008,1.548.006.771.012,1.6.009,2.493a7.368,7.368,0,0,1,3.424,2.242,8.963,8.963,0,0,1,0,11.574,7.156,7.156,0,0,1-5.422,2.533h-.065a22.808,22.808,0,0,1-6.325,10.188c-3.91,3.485-9.179,5.252-15.661,5.252s-11.751-1.767-15.66-5.252a22.765,22.765,0,0,1-6.318-10.188H98.19a7.156,7.156,0,0,1-5.422-2.533,8.963,8.963,0,0,1,0-11.574,7.37,7.37,0,0,1,3.414-2.239c0-.89,0-1.725.009-2.5,0-.552.008-1.074.008-1.548a22.176,22.176,0,0,1,5.842-14.942C105.109,69.636,110.754,65.7,120.23,65.7Zm22.05,38.57c1.952,0,3.54-1.938,3.54-4.32s-1.588-4.32-3.54-4.32h-.02a2,2,0,0,1-2-2.036c.027-1.505.017-2.9.008-4.137,0-.56-.008-1.089-.008-1.577,0-8.756-6.268-18.18-20.03-18.18S100.2,79.124,100.2,87.88c0,.489,0,1.018-.008,1.577-.009,1.233-.019,2.631.008,4.137a2,2,0,0,1-2,2.036h-.01c-1.952,0-3.54,1.938-3.54,4.32s1.588,4.32,3.54,4.32a2.9,2.9,0,0,0,.882-.135,2,2,0,0,1,2.541,1.392c2.537,9.544,8.626,14.184,18.617,14.184s16.079-4.64,18.628-14.186a2,2,0,0,1,2.54-1.389A2.937,2.937,0,0,0,142.28,104.27Z" fill="#197f57"/>
      </g>
      <path id="Path_277" data-name="Path 277" d="M52.9,53.31H70.44a.96.96,0,0,1,.96.96V84.49a.96.96,0,0,1-.96.96H52.9a.96.96,0,0,1-.96-.96V54.27a.96.96,0,0,1,.96-.96Z" fill="#bfe2d5"/>
    </g>
  </g>
</svg>
