<svg xmlns="http://www.w3.org/2000/svg" width="116.26" height="115.7" viewBox="0 0 116.26 115.7">
  <g id="Icons-25" transform="translate(-47.27 -43.15)">
    <g id="Group_11556" data-name="Group 11556">
      <rect id="Rectangle_1331" data-name="Rectangle 1331" width="16.77" height="32.26" transform="translate(87.65 123.41)" fill="#41b880"/>
      <rect id="Rectangle_1332" data-name="Rectangle 1332" width="16.77" height="32.26" transform="translate(106.37 123.41)" fill="#41b880"/>
      <path id="Path_291" data-name="Path 291" d="M112,143.94a1.878,1.878,0,0,1-1.88-1.88v-3.84a1.88,1.88,0,1,1,3.76,0v3.84a1.884,1.884,0,0,1-1.88,1.88Z" fill="#bfe2d5"/>
      <path id="Path_292" data-name="Path 292" d="M98.8,143.94a1.884,1.884,0,0,1-1.88-1.88v-3.84a1.88,1.88,0,1,1,3.76,0v3.84a1.884,1.884,0,0,1-1.88,1.88Z" fill="#bfe2d5"/>
      <path id="Path_293" data-name="Path 293" d="M124.22,116.65H86.58A1.344,1.344,0,0,0,85.23,118v4.05a1.344,1.344,0,0,0,1.35,1.35h37.64a1.353,1.353,0,0,0,1.36-1.35V118a1.359,1.359,0,0,0-1.36-1.35Z" fill="#41b880"/>
      <path id="Path_294" data-name="Path 294" d="M71.65,158.85H51.07a3.8,3.8,0,0,1-3.8-3.8V87.37a8.77,8.77,0,0,1,8.76-8.76H71.65a2,2,0,0,1,0,4H56.03a4.765,4.765,0,0,0-4.76,4.76v67.48H71.65a2,2,0,0,1,0,4Z" fill="#197f57"/>
      <path id="Path_295" data-name="Path 295" d="M66.6,85.84H59.88a5.561,5.561,0,0,0-5.56,5.56v59.1a1.118,1.118,0,0,0,1.12,1.12H66.59V85.84Z" fill="#bfe2d5"/>
      <path id="Path_296" data-name="Path 296" d="M144.2,151.82h11.15a1.118,1.118,0,0,0,1.12-1.12V91.6a5.561,5.561,0,0,0-5.56-5.56h-6.72v65.79h0Z" fill="#bfe2d5"/>
      <path id="Path_297" data-name="Path 297" d="M159.73,158.85H139.15a2,2,0,0,1,0-4h20.38V87.37a4.765,4.765,0,0,0-4.76-4.76H139.15a2,2,0,0,1,0-4h15.62a8.77,8.77,0,0,1,8.76,8.76v67.68A3.8,3.8,0,0,1,159.73,158.85Z" fill="#197f57"/>
      <path id="Path_298" data-name="Path 298" d="M139.14,158.85H71.65a2,2,0,0,1-2-2V71.56a8.77,8.77,0,0,1,8.76-8.76h53.97a8.77,8.77,0,0,1,8.76,8.76v85.29A2,2,0,0,1,139.14,158.85Zm-65.49-4h63.49V71.56a4.765,4.765,0,0,0-4.76-4.76H78.41a4.765,4.765,0,0,0-4.76,4.76Z" fill="#197f57"/>
      <path id="Path_299" data-name="Path 299" d="M126.21,63.96A20.81,20.81,0,1,1,105.4,43.15a20.814,20.814,0,0,1,20.81,20.81Z" fill="#bfe2d5"/>
      <path id="Path_300" data-name="Path 300" d="M118.25,64.09a2.9,2.9,0,0,1-2.89,2.89H108.4v6.94a2.9,2.9,0,0,1-2.89,2.89h-.26a2.9,2.9,0,0,1-2.89-2.89V66.98H95.45a2.9,2.9,0,0,1-2.89-2.89v-.26a2.9,2.9,0,0,1,2.89-2.89h6.91V54a2.9,2.9,0,0,1,2.89-2.89h.26A2.9,2.9,0,0,1,108.4,54v6.94h6.96a2.9,2.9,0,0,1,2.89,2.89Z" fill="#41b880"/>
      <path id="Path_301" data-name="Path 301" d="M105.4,87.61A22.8,22.8,0,0,1,82.59,64.8a2,2,0,0,1,4,0,18.81,18.81,0,0,0,37.62,0,2,2,0,0,1,4,0A22.8,22.8,0,0,1,105.4,87.61Z" fill="#197f57"/>
      <g id="Group_11555" data-name="Group 11555">
        <path id="Path_302" data-name="Path 302" d="M100.24,105.76H85.26a1.8,1.8,0,0,1-1.8-1.81l.04-8.32a1.805,1.805,0,0,1,1.8-1.8h14.94a1.8,1.8,0,0,1,1.8,1.8v8.32a1.8,1.8,0,0,1-1.8,1.8h0Z" fill="#41b880"/>
        <path id="Path_303" data-name="Path 303" d="M110.61,93.83h14.92a1.8,1.8,0,0,1,1.8,1.81l-.04,8.32a1.805,1.805,0,0,1-1.8,1.8H110.6a1.8,1.8,0,0,1-1.8-1.8V95.64a1.8,1.8,0,0,1,1.8-1.8h0Z" fill="#41b880"/>
      </g>
    </g>
  </g>
</svg>
