<svg xmlns="http://www.w3.org/2000/svg" width="115.219" height="120.19" viewBox="0 0 115.219 120.19">
  <g id="Icons-26" transform="translate(-42.386 -39.91)">
    <g id="Group_11568" data-name="Group 11568">
      <path id="Path_319" data-name="Path 319" d="M79.07,119.88l1.19,1.81,12.25,18.7a9.6,9.6,0,0,1-1.31,13.35,8.614,8.614,0,0,1-5.75,2.35c-4.72,0-7.69-4.29-8.15-5.01L63.7,130.66l-2.21-3.31,3.33-2.08,7.09-4.42.74-.46.86-.07,3.46-.27,2.11-.17m2.05-4.17-2.36.19-2.11.17-3.46.27-.86.07-.97.08-.83.52-.74.46-7.09,4.42-3.33,2.08-3.5,2.18,2.29,3.43,2.21,3.31,13.59,20.4c.78,1.2,4.79,6.81,11.5,6.81a12.646,12.646,0,0,0,8.39-3.35A13.536,13.536,0,0,0,95.8,138.1L83.62,119.52l-1.19-1.81-1.3-1.98h0Z" fill="#197f57"/>
      <path id="Path_320" data-name="Path 320" d="M84.19,69.87l.76.22,7.81,2.22,1.4.4.82,1.21,12.28,18.14,10.94,14.65,1.59,2.13-1.35,2.29-5.1,8.66-.72,1.22a1.11,1.11,0,0,1-.83.54l-1.41.17-34.1,3.68-2.25.81-1.37-2.03L60.53,106.2l-1.34-1.99,1.12-2.12L75.98,72.55l.28-.53a2.853,2.853,0,0,1,2.2-1.5l.59-.07,4.34-.5.79-.09m.33-4.06-.79.09-.79.09-4.34.5-.59.07a6.853,6.853,0,0,0-5.28,3.6l-.28.53L56.77,100.22l-1.12,2.12-1.12,2.12,1.34,1.99,1.34,1.99,12.13,17.98,1.37,2.03,1.74,2.58,2.93-1.06,1.8-.65,33.63-3.63h.06l1.41-.17a5.127,5.127,0,0,0,3.78-2.48l.72-1.22,5.1-8.66,1.35-2.29,1.35-2.29-1.59-2.13-1.59-2.13L110.52,89.74,98.29,71.67l-.82-1.21-.82-1.21-1.4-.4-1.4-.4-7.81-2.22-.76-.22-.76-.22h0Z" fill="#197f57"/>
      <path id="Path_321" data-name="Path 321" d="M64.8,98.23l2.37,3.51L79.3,119.72l2.35,3.49-3.61,2.17-10.35,6.23-.05.03-.05.03a15.717,15.717,0,0,1-7.19,1.82,12.989,12.989,0,0,1-11.16-6.46c-5.35-8.44-1.94-15.08.61-17.42l.14-.12.15-.11,11.31-8.58,3.37-2.56m.95-5.74L62.4,95.06l-3.37,2.56L47.72,106.2l-.15.11-.15.11-.14.12-.14.12c-3.41,3.12-8.06,11.84-1.28,22.52A17.1,17.1,0,0,0,60.4,137.5a19.817,19.817,0,0,0,9.16-2.34l.05-.03.05-.03.05-.03.05-.03,10.35-6.23,3.61-2.17,3.61-2.17-2.35-3.49-2.35-3.49L70.5,99.51,68.13,96l-2.37-3.51h0Z" fill="#197f57"/>
      <path id="Path_322" data-name="Path 322" d="M85.94,65.81c7.76,0,17.85,7.24,25.69,18.45,4.58,6.55,7.76,13.58,8.94,19.79,1.39,7.31-.11,12.91-4.22,15.79a10.433,10.433,0,0,1-6.12,1.83c-7.76,0-17.85-7.24-25.69-18.45-4.58-6.55-7.76-13.58-8.94-19.79-1.39-7.31.11-12.91,4.22-15.79a10.433,10.433,0,0,1,6.12-1.83m0-4a14.349,14.349,0,0,0-8.41,2.56c-5.48,3.83-7.56,10.87-5.86,19.81,1.28,6.76,4.69,14.33,9.59,21.34,8.7,12.44,19.8,20.16,28.97,20.16a14.349,14.349,0,0,0,8.41-2.56c5.48-3.83,7.56-10.87,5.86-19.81-1.28-6.76-4.69-14.33-9.59-21.34-8.7-12.44-19.8-20.16-28.97-20.16h0Z" fill="#197f57"/>
      <g id="Group_11563" data-name="Group 11563">
        <path id="Path_323" data-name="Path 323" d="M129.231,87.23H129.2A2,2,0,0,1,127.23,85.2,16.088,16.088,0,0,0,118.838,70.9a2,2,0,0,1,1.9-3.518A20.088,20.088,0,0,1,131.23,85.255,2,2,0,0,1,129.231,87.23Z" fill="#3eb883"/>
        <path id="Path_324" data-name="Path 324" d="M142.421,91.49h-.027a2,2,0,0,1-1.973-2.027,36.144,36.144,0,0,0-18.873-32.175,2,2,0,0,1,1.9-3.517A40.144,40.144,0,0,1,144.42,89.517,2,2,0,0,1,142.421,91.49Z" fill="#3eb883"/>
        <path id="Path_325" data-name="Path 325" d="M155.6,95.75h-.028a2,2,0,0,1-1.973-2.027,56.231,56.231,0,0,0-29.354-50.055,2,2,0,1,1,1.907-3.516A60.118,60.118,0,0,1,157.6,93.777,2,2,0,0,1,155.6,95.75Z" fill="#3eb883"/>
      </g>
      <g id="Group_11564" data-name="Group 11564">
        <path id="Path_326" data-name="Path 326" d="M85.44,154.3c-4.01,0-6.55-3.84-6.82-4.28L63.88,127.9l8.94-5.57,4.3-2.34L91.2,141.47a7.726,7.726,0,0,1-1.04,10.88,7.044,7.044,0,0,1-4.71,1.95Z" fill="#bfe2d5"/>
        <path id="Path_327" data-name="Path 327" d="M76.46,122.63l13.11,20.02s3.56,4.43-.74,8.21a5.1,5.1,0,0,1-3.39,1.45c-3.02,0-5.13-3.35-5.13-3.35L66.69,128.51l7.09-4.42,2.68-1.46m1.32-5.28-3.24,1.77-2.68,1.46-.1.06-.1.06-7.09,4.42-3.5,2.18,2.29,3.43,13.6,20.42c.48.75,3.54,5.16,8.48,5.16a9.07,9.07,0,0,0,6.03-2.45,9.737,9.737,0,0,0,1.35-13.54L79.8,120.44l-2.02-3.09h0Z" fill="#fff"/>
      </g>
      <g id="Group_11565" data-name="Group 11565">
        <path id="Path_328" data-name="Path 328" d="M61.52,104.1,78.25,72.57l5.77-.66,8.9,2.53,12.74,18.82,11.73,15.71-6.29,10.68-36.44,3.94Z" fill="#bfe2d5"/>
        <path id="Path_329" data-name="Path 329" d="M83.86,73.94l7.81,2.22L104,94.38l10.99,14.72-5.1,8.66-34.24,3.7-11.8-17.5L79.52,74.42l4.34-.5m.33-4.06-.79.09-4.34.5-2.09.24-.99,1.86L60.31,102.09l-1.12,2.12,1.34,1.99,11.8,17.5,1.35,2,2.4-.26,34.24-3.7,2-.22,1.02-1.73,5.1-8.66,1.35-2.29-1.59-2.13L107.26,92.06,94.98,73.92l-.82-1.21-1.4-.4-7.81-2.22-.76-.22h0Z" fill="#fff"/>
      </g>
      <g id="Group_11566" data-name="Group 11566">
        <path id="Path_330" data-name="Path 330" d="M60.4,131.49c-2.72,0-6.57-.96-9.47-5.53-4.64-7.32-1.85-12.93.27-14.88l.07-.06,13.07-9.92,14.48,21.48L66.66,129.9a13.87,13.87,0,0,1-6.26,1.59h0Z" fill="#bfe2d5"/>
        <path id="Path_331" data-name="Path 331" d="M63.85,103.97l12.13,17.98-10.35,6.23a11.786,11.786,0,0,1-5.23,1.3c-2.52,0-5.48-.97-7.79-4.61-4.97-7.83-.07-12.33-.07-12.33l11.31-8.58m.95-5.74-3.37,2.56-11.31,8.58-.15.11-.14.12c-2.55,2.34-5.96,8.99-.61,17.42a13,13,0,0,0,11.16,6.46,15.717,15.717,0,0,0,7.19-1.82l.05-.03.05-.03,10.35-6.23,3.61-2.17-2.35-3.49L67.15,101.72l-2.37-3.51h0Z" fill="#fff"/>
      </g>
      <g id="Group_11567" data-name="Group 11567">
        <path id="Path_332" data-name="Path 332" d="M110.23,119.68c-7.02,0-16.69-7.07-24.06-17.6-9.6-13.72-11.88-28.12-5.21-32.79a8.475,8.475,0,0,1,4.97-1.47c7.02,0,16.69,7.07,24.06,17.6,9.6,13.72,11.88,28.12,5.21,32.79A8.475,8.475,0,0,1,110.23,119.68Z" fill="#3eb883"/>
        <path id="Path_333" data-name="Path 333" d="M85.94,69.81c6.2,0,15.27,6.53,22.42,16.75,8.82,12.6,11.37,26.04,5.7,30.01a6.556,6.556,0,0,1-3.82,1.11c-6.2,0-15.27-6.53-22.42-16.75C79,88.33,76.45,74.89,82.12,70.92a6.556,6.556,0,0,1,3.82-1.11m0-4a10.5,10.5,0,0,0-6.12,1.83c-4.11,2.88-5.61,8.48-4.22,15.79,1.18,6.21,4.35,13.24,8.94,19.79,7.84,11.21,17.93,18.45,25.69,18.45a10.5,10.5,0,0,0,6.12-1.83c4.11-2.88,5.61-8.48,4.22-15.79-1.18-6.21-4.35-13.24-8.94-19.79C103.79,73.05,93.7,65.81,85.94,65.81Z" fill="#fff"/>
      </g>
    </g>
  </g>
</svg>
